<svg xmlns="http://www.w3.org/2000/svg" viewBox="0 0 100 100" width="100" height="100" role="img" aria-label="ag flower monogram"><g fill="#4d8bf5"><ellipse cx="73.00" cy="50.00" rx="10" ry="21" transform="rotate(90.00 73.00 50.00)"/><ellipse cx="61.50" cy="69.92" rx="10" ry="21" transform="rotate(150.00 61.50 69.92)"/><ellipse cx="38.50" cy="69.92" rx="10" ry="21" transform="rotate(210.00 38.50 69.92)"/><ellipse cx="27.00" cy="50.00" rx="10" ry="21" transform="rotate(270.00 27.00 50.00)"/><ellipse cx="38.50" cy="30.08" rx="10" ry="21" transform="rotate(330.00 38.50 30.08)"/><ellipse cx="61.50" cy="30.08" rx="10" ry="21" transform="rotate(390.00 61.50 30.08)"/></g><circle cx="50" cy="50" r="7" fill="#f4eee3"/><path d="M171.07958984375 -13.99005126953125Q114.759521484375 -13.99005126953125 76.57958984375 18.334991455078125Q38.399658203125 50.6600341796875 38.399658203125 112.33001708984375Q38.399658203125 144.63018798828125 52.54974365234375 172.11526489257812Q66.6998291015625 199.600341796875 105.50497436523438 223.7603759765625Q144.31011962890625 247.92041015625 217.27032470703125 268.25042724609375Q243.600341796875 275.92041015625 269.93035888671875 283.2554016113281Q296.2603759765625 290.59039306640625 322.09039306640625 297.9253845214844Q347.92041015625 305.2603759765625 374.25042724609375 312.2603759765625V274.2802734375Q340.91046142578125 264.2802734375 308.7355041503906 253.77529907226562Q276.560546875 243.27032470703125 247.19073486328125 233.59039306640625Q209.12109375 221.9005126953125 189.11114501953125 205.060546875Q169.1011962890625 188.2205810546875 161.94613647460938 169.07049560546875Q154.79107666015625 149.92041015625 154.79107666015625 129.63018798828125Q154.79107666015625 92.61029052734375 175.31594848632812 75.77529907226562Q195.8408203125 58.9403076171875 225.880615234375 58.9403076171875Q241.89056396484375 58.9403076171875 256.73052978515625 64.11029052734375Q271.57049560546875 69.2802734375 292.93035888671875 82.96517944335938Q314.29022216796875 96.65008544921875 348.0198974609375 122.02984619140625L360.36981201171875 71.36981201171875H324.759521484375Q297.399658203125 43.34991455078125 275.0547180175781 24.344940185546875Q252.70977783203125 5.3399658203125 228.71475219726562 -4.325042724609375Q204.7197265625 -13.99005126953125 171.07958984375 -13.99005126953125ZM415.3399658203125 -11.9801025390625Q369.04974365234375 -11.9801025390625 342.5646667480469 14.52984619140625Q316.07958984375 41.039794921875 313.10943603515625 86.04974365234375V90.7197265625V326.2802734375Q313.10943603515625 373.3001708984375 304.7644958496094 398.64013671875Q296.4195556640625 423.9801025390625 277.06964111328125 434.1451110839844Q257.7197265625 444.31011962890625 225.04974365234375 444.31011962890625Q207.38970947265625 444.31011962890625 185.88473510742188 441.14013671875Q164.3797607421875 437.97015380859375 133.399658203125 427.960205078125L187.9403076171875 463.2603759765625L171.19073486328125 385.520751953125Q166.5008544921875 349.9801025390625 149.87564086914062 333.18988037109375Q133.25042724609375 316.399658203125 109.29022216796875 316.399658203125Q85.65008544921875 316.399658203125 71.17495727539062 328.2247009277344Q56.6998291015625 340.04974365234375 52.7197265625 361.68988037109375Q62.0994873046875 421.33001708984375 117.56964111328125 457.14013671875Q173.039794921875 492.95025634765625 263.89056396484375 492.95025634765625Q322.17083740234375 492.95025634765625 358.6459655761719 474.6252136230469Q395.12109375 456.3001708984375 412.6161193847656 416.8150939941406Q430.11114501953125 377.33001708984375 430.11114501953125 312.34991455078125V94.06964111328125Q430.11114501953125 70.320068359375 438.2960510253906 59.625213623046875Q446.48095703125 48.93035888671875 459.8408203125 48.93035888671875Q470.53070068359375 48.93035888671875 478.5406494140625 54.435333251953125Q486.55059814453125 59.9403076171875 494.880615234375 70.93035888671875L517.8507690429688 50.91046142578125Q499.85076904296875 16.3001708984375 475.05059814453125 2.1600341796875Q450.25042724609375 -11.9801025390625 415.3399658203125 -11.9801025390625Z" fill="#141414" transform="translate(34.088 34.127) scale(0.01700 -0.01700)"/><path d="M219.78936767578125 -234.0596923828125Q150.1392822265625 -234.0596923828125 107.62933349609375 -218.22967529296875Q65.119384765625 -202.399658203125 45.774444580078125 -175.55471801757812Q26.42950439453125 -148.70977783203125 26.42950439453125 -117.3399658203125Q26.42950439453125 -91.0198974609375 39.914581298828125 -69.02984619140625Q53.399658203125 -47.039794921875 83.22470092773438 -28.18988037109375Q113.04974365234375 -9.3399658203125 161.399658203125 5.70977783203125L170.6998291015625 -1.61029052734375Q153.00994873046875 -16.320068359375 141.66500854492188 -30.679931640625Q130.320068359375 -45.039794921875 125.15008544921875 -60.2197265625Q119.9801025390625 -75.399658203125 119.9801025390625 -94.40960693359375Q119.9801025390625 -123.10943603515625 134.0 -142.78439331054688Q148.0198974609375 -162.4593505859375 175.6998291015625 -171.78936767578125Q203.3797607421875 -181.119384765625 244.35986328125 -181.119384765625Q299.35986328125 -181.119384765625 335.3747863769531 -169.43447875976562Q371.38970947265625 -157.74957275390625 389.06964111328125 -137.55471801757812Q406.74957275390625 -117.35986328125 406.74957275390625 -91.66998291015625Q406.74957275390625 -59.65008544921875 385.72967529296875 -39.3001708984375Q364.70977783203125 -18.95025634765625 315.33001708984375 -18.95025634765625H207.57049560546875Q185.6600341796875 -18.95025634765625 167.039794921875 -17.455230712890625Q148.4195556640625 -15.960205078125 132.78936767578125 -12.64013671875V-9.31011962890625Q94.78936767578125 0.66998291015625 75.12435913085938 22.485076904296875Q55.4593505859375 44.3001708984375 55.4593505859375 77.29022216796875Q55.4593505859375 107.240478515625 75.60446166992188 137.22555541992188Q95.74957275390625 167.21063232421875 140.40960693359375 201.92041015625V212.92041015625L176.38970947265625 195.61029052734375Q157.68988037109375 177.23052978515625 149.50497436523438 162.0406494140625Q141.320068359375 146.85076904296875 141.320068359375 130.8408203125Q141.320068359375 105.48095703125 157.16500854492188 93.47100830078125Q173.00994873046875 81.4610595703125 207.35986328125 81.4610595703125H323.7197265625Q388.6202392578125 81.4610595703125 428.5754699707031 64.97598266601562Q468.53070068359375 48.49090576171875 487.020751953125 18.505828857421875Q505.51080322265625 -11.479248046875 505.51080322265625 -52.1392822265625Q505.51080322265625 -87.119384765625 486.8656921386719 -119.60446166992188Q468.2205810546875 -152.08953857421875 432.0953674316406 -178.07958984375Q395.97015380859375 -204.06964111328125 342.6849060058594 -219.06466674804688Q289.399658203125 -234.0596923828125 219.78936767578125 -234.0596923828125ZM242.3001708984375 167.92041015625Q181.38970947265625 167.92041015625 137.91458129882812 187.57546997070312Q94.439453125 207.23052978515625 71.60446166992188 243.56552124023438Q48.76947021484375 279.9005126953125 48.76947021484375 329.9403076171875Q48.76947021484375 379.97015380859375 71.939453125 416.47015380859375Q95.10943603515625 452.97015380859375 138.58456420898438 472.960205078125Q182.0596923828125 492.95025634765625 242.97015380859375 492.95025634765625Q278.25042724609375 492.95025634765625 307.05059814453125 486.4552307128906Q335.85076904296875 479.960205078125 358.67083740234375 467.6351623535156Q381.49090576171875 455.31011962890625 397.8209228515625 437.65008544921875L400.81097412109375 434.6600341796875Q418.15093994140625 414.6600341796875 427.3258972167969 388.3150939941406Q436.5008544921875 361.97015380859375 436.5008544921875 329.9403076171875Q436.5008544921875 281.240478515625 413.33087158203125 244.57049560546875Q390.160888671875 207.9005126953125 346.6857604980469 187.91046142578125Q303.21063232421875 167.92041015625 242.3001708984375 167.92041015625ZM241.29022216796875 209.9005126953125Q269.33001708984375 209.9005126953125 288.6998291015625 225.41046142578125Q308.06964111328125 240.92041015625 317.9245300292969 268.43035888671875Q327.7794189453125 295.9403076171875 327.7794189453125 332.61029052734375Q327.7794189453125 368.61029052734375 318.0945129394531 395.1152648925781Q308.40960693359375 421.6202392578125 289.70977783203125 435.960205078125Q271.00994873046875 450.3001708984375 243.97015380859375 450.3001708984375Q217.2603759765625 450.3001708984375 197.72555541992188 435.29022216796875Q178.19073486328125 420.2802734375 168.17083740234375 393.4403076171875Q158.15093994140625 366.600341796875 158.15093994140625 329.93035888671875Q158.15093994140625 293.93035888671875 167.67083740234375 266.7554016113281Q177.19073486328125 239.5804443359375 195.55557250976562 224.740478515625Q213.92041015625 209.9005126953125 241.29022216796875 209.9005126953125ZM363.4610595703125 414.3399658203125V443.9801025390625H370.12109375L497.160888671875 493.9403076171875L512.4909057617188 483.9403076171875V414.3399658203125Z" fill="#141414" transform="translate(56.995 72.214) scale(0.01700 -0.01700)"/></svg>